<?xml version="1.0" encoding="utf-8"?>
<!-- Generator: Avocode 2.6.0 - http://avocode.com -->
<svg height="19" width="20" xmlns:xlink="http://www.w3.org/1999/xlink" xmlns="http://www.w3.org/2000/svg" viewBox="0 0 20 19">
    <path fill="#ffffff" fill-rule="evenodd" d="M 10.7 10.92 C 10.51 11.11 10.25 11.21 10 11.21 C 9.75 11.21 9.49 11.11 9.3 10.92 C 9.3 10.92 1.06 2.68 1.06 2.68 C 0.68 2.3 0.68 1.68 1.06 1.3 C 1.06 1.3 1.76 0.6 1.76 0.6 C 2.14 0.22 2.76 0.22 3.14 0.6 C 3.14 0.6 10 7.46 10 7.46 C 10 7.46 16.86 0.6 16.86 0.6 C 17.24 0.22 17.86 0.22 18.24 0.6 C 18.24 0.6 18.94 1.3 18.94 1.3 C 19.32 1.68 19.32 2.3 18.94 2.68 C 18.94 2.68 10.7 10.92 10.7 10.92 Z M 1.76 7.78 C 2.14 7.39 2.76 7.39 3.14 7.78 C 3.14 7.78 10 14.63 10 14.63 C 10 14.63 16.86 7.78 16.86 7.78 C 17.24 7.39 17.86 7.39 18.24 7.78 C 18.24 7.78 18.94 8.47 18.94 8.47 C 19.32 8.85 19.32 9.48 18.94 9.86 C 18.94 9.86 10.7 18.09 10.7 18.09 C 10.51 18.29 10.25 18.38 10 18.38 C 9.75 18.38 9.49 18.29 9.3 18.1 C 9.3 18.1 1.06 9.86 1.06 9.86 C 0.68 9.48 0.68 8.85 1.06 8.47 C 1.06 8.47 1.76 7.78 1.76 7.78 Z" />
</svg>