<?xml version="1.0" encoding="utf-8"?>
<!-- Generator: Avocode 2.6.0 - http://avocode.com -->
<svg height="19" width="20" xmlns:xlink="http://www.w3.org/1999/xlink" xmlns="http://www.w3.org/2000/svg" viewBox="0 0 20 19">
    <path fill="#ffffff" fill-rule="evenodd" d="M 18.24 10.91 C 17.86 11.29 17.24 11.29 16.86 10.91 C 16.86 10.91 10 4.05 10 4.05 C 10 4.05 3.14 10.91 3.14 10.91 C 2.76 11.29 2.14 11.29 1.76 10.91 C 1.76 10.91 1.06 10.22 1.06 10.22 C 0.68 9.84 0.68 9.21 1.06 8.83 C 1.06 8.83 9.3 0.59 9.3 0.59 C 9.49 0.4 9.75 0.31 10 0.31 C 10.25 0.31 10.51 0.4 10.7 0.59 C 10.7 0.59 18.94 8.83 18.94 8.83 C 19.32 9.21 19.32 9.84 18.94 10.22 C 18.94 10.22 18.24 10.91 18.24 10.91 Z M 9.3 7.77 C 9.49 7.57 9.75 7.48 10 7.48 C 10.25 7.48 10.51 7.57 10.7 7.76 C 10.7 7.76 18.94 16 18.94 16 C 19.32 16.38 19.32 17.01 18.94 17.39 C 18.94 17.39 18.24 18.08 18.24 18.08 C 17.86 18.47 17.24 18.47 16.86 18.08 C 16.86 18.08 10 11.23 10 11.23 C 10 11.23 3.14 18.08 3.14 18.08 C 2.76 18.47 2.14 18.47 1.76 18.08 C 1.76 18.08 1.06 17.39 1.06 17.39 C 0.68 17.01 0.68 16.38 1.06 16 C 1.06 16 9.3 7.77 9.3 7.77 Z" />
</svg>