<?xml version="1.0" encoding="utf-8"?>
<!-- Generator: Avocode 2.6.0 - http://avocode.com -->
<svg height="17" width="17" xmlns:xlink="http://www.w3.org/1999/xlink" xmlns="http://www.w3.org/2000/svg" viewBox="0 0 17 17">
    <path fill="#ffffff" fill-rule="evenodd" d="M 8.5 16.73 C 3.88 16.73 0.12 12.97 0.12 8.35 C 0.12 3.73 3.88 -0.03 8.5 -0.03 C 13.12 -0.03 16.88 3.73 16.88 8.35 C 16.88 12.97 13.12 16.73 8.5 16.73 M 15.57 9.5 C 15.33 9.42 13.36 8.83 11.11 9.19 C 12.05 11.76 12.43 13.86 12.5 14.3 C 14.11 13.21 15.25 11.49 15.57 9.5 M 11.3 14.95 C 11.19 14.32 10.77 12.14 9.77 9.52 C 9.75 9.53 9.74 9.53 9.72 9.54 C 5.68 10.95 4.23 13.75 4.11 14.01 C 5.32 14.95 6.85 15.52 8.5 15.52 C 9.49 15.52 10.44 15.32 11.3 14.95 M 3.18 13.15 C 3.34 12.87 5.31 9.62 9 8.42 C 9.1 8.39 9.19 8.36 9.28 8.34 C 9.1 7.93 8.91 7.52 8.7 7.12 C 5.13 8.19 1.66 8.15 1.34 8.14 C 1.34 8.22 1.34 8.29 1.34 8.36 C 1.34 10.2 2.04 11.88 3.18 13.15 M 1.49 6.89 C 1.81 6.9 4.76 6.91 8.11 6.02 C 6.93 3.91 5.64 2.14 5.46 1.88 C 3.45 2.83 1.96 4.67 1.49 6.89 M 6.82 1.4 C 7.02 1.66 8.32 3.44 9.49 5.59 C 12.04 4.64 13.12 3.19 13.25 3 C 11.98 1.88 10.32 1.2 8.5 1.2 C 7.92 1.2 7.36 1.27 6.82 1.4 M 14.04 3.83 C 13.89 4.04 12.69 5.58 10.04 6.66 C 10.21 7 10.37 7.34 10.52 7.69 C 10.57 7.82 10.63 7.94 10.67 8.06 C 13.06 7.76 15.42 8.24 15.66 8.29 C 15.65 6.6 15.04 5.05 14.04 3.83" />
</svg>