<?xml version="1.0" encoding="utf-8"?>
<!-- Generator: Avocode 2.6.0 - http://avocode.com -->
<svg height="17" width="21" xmlns:xlink="http://www.w3.org/1999/xlink" xmlns="http://www.w3.org/2000/svg" viewBox="0 0 21 17">
    <path fill="#ffffff" fill-rule="evenodd" d="M 11.01 -0.03 C 11.01 -0.03 5.98 -0.03 5.98 -0.03 C 3.7 -0.03 1.56 1.85 1.56 3.79 C 1.56 5.76 3.11 7.35 5.43 7.35 C 5.59 7.35 5.75 7.35 5.9 7.34 C 5.75 7.62 5.64 7.93 5.64 8.26 C 5.64 8.81 5.94 9.25 6.33 9.61 C 6.04 9.61 5.76 9.62 5.45 9.62 C 2.64 9.62 0 11.33 0 13.13 C 0 14.9 2.84 16.04 5.66 16.04 C 8.87 16.04 10.95 14.28 10.95 12.5 C 10.95 11.08 10.21 10.23 8.87 9.31 C 8.41 9 7.53 8.24 7.53 7.79 C 7.53 7.26 7.69 7 8.51 6.38 C 9.35 5.75 9.94 4.86 9.94 3.82 C 9.94 2.58 9.37 1.38 8.3 0.98 C 8.3 0.98 10.98 1.01 10.98 1.01 C 10.98 1.01 11.01 -0.03 11.01 -0.03 Z M 9.27 12.26 C 9.07 12.4 9.06 12.69 9.06 12.86 C 9.06 14.3 8 15.01 5.68 15.01 C 3.73 15.01 2.02 14.07 2.02 12.63 C 2.02 11.23 4.04 10.06 5.99 10.08 C 6.44 10.08 6.86 10.16 7.25 10.27 C 8.3 10.99 9.06 11.39 9.27 12.2 M 6.16 6.85 C 4.85 6.82 3.61 5.44 3.39 3.78 C 3.16 2.12 4.04 0.84 5.34 0.88 C 6.65 0.92 7.89 2.25 8.12 3.92 C 8.34 5.58 7.47 6.89 6.16 6.85 M 15.99 3.93 C 15.99 3.93 15.99 -0.03 15.99 -0.03 C 15.99 -0.03 15 -0.03 15 -0.03 C 15 -0.03 15 3.99 15 3.99 C 15 3.99 10.99 4.02 10.99 4.02 C 10.99 4.02 11.05 5 11.05 5 C 11.05 5 15.03 4.97 15.03 4.97 C 15.03 4.97 15 9.02 15 9.02 C 15 9.02 15.99 8.99 15.99 8.99 C 15.99 8.99 15.96 5 15.96 5 C 15.96 5 20 4.97 20 4.97 C 20 4.97 20.03 3.93 20.03 3.93 C 20.03 3.93 15.99 3.93 15.99 3.93 Z" />
</svg>