<?xml version="1.0" encoding="utf-8"?>
<!-- Generator: Avocode 2.6.0 - http://avocode.com -->
<svg height="32" width="39" xmlns:xlink="http://www.w3.org/1999/xlink" xmlns="http://www.w3.org/2000/svg" viewBox="0 0 39 32">
    <path fill="#ffffff" fill-rule="evenodd" d="M 11.61 17.94 C 11.61 22.23 15.15 25.7 19.51 25.7 C 23.88 25.7 27.42 22.23 27.42 17.94 C 27.42 13.65 23.88 10.18 19.51 10.18 C 15.15 10.18 11.61 13.65 11.61 17.94 M 36.54 4.81 C 36.54 4.81 28.03 4.81 28.03 4.81 C 27.42 2.42 26.81 0.03 24.38 0.03 C 24.38 0.03 14.65 0.03 14.65 0.03 C 12.22 0.03 11.61 2.42 11 4.81 C 11 4.81 2.48 4.81 2.48 4.81 C 1.15 4.81 0.05 5.88 0.05 7.19 C 0.05 7.19 0.05 28.69 0.05 28.69 C 0.05 30 1.15 31.08 2.48 31.08 C 2.48 31.08 36.54 31.08 36.54 31.08 C 37.88 31.08 38.98 30 38.98 28.69 C 38.98 28.69 38.98 7.19 38.98 7.19 C 38.98 5.88 37.88 4.81 36.54 4.81 M 19.51 28.54 C 13.55 28.54 8.72 23.8 8.72 17.94 C 8.72 12.09 13.55 7.34 19.51 7.34 C 25.48 7.34 30.31 12.09 30.31 17.94 C 30.31 23.8 25.48 28.54 19.51 28.54 M 36.98 12 C 36.98 12 31.99 12.03 31.99 12.03 C 31.99 12.03 31.99 9.96 31.99 9.96 C 31.99 9.96 36.98 9.99 36.98 9.99 C 36.98 9.99 36.98 12 36.98 12 Z" />
</svg>