<?xml version="1.0" encoding="utf-8"?>
<!-- Generator: Avocode 2.6.0 - http://avocode.com -->
<svg height="40" width="43" xmlns:xlink="http://www.w3.org/1999/xlink" xmlns="http://www.w3.org/2000/svg" viewBox="0 0 43 40">
    <path fill="#ffffff" fill-rule="evenodd" d="M 42.04 23.75 C 42.04 23.75 42.04 16.39 42.04 16.39 C 42.04 16.39 35.8 15.28 35.8 15.28 C 35.57 14.57 35.28 13.88 34.94 13.23 C 34.94 13.23 38.38 8.49 38.38 8.49 C 38.38 8.49 32.97 3.18 32.97 3.18 C 32.97 3.18 28.17 6.56 28.17 6.56 C 27.5 6.22 26.8 5.93 26.08 5.7 C 26.08 5.7 25.11 -0.03 25.11 -0.03 C 25.11 -0.03 17.47 -0.03 17.47 -0.03 C 17.47 -0.03 16.5 5.7 16.5 5.7 C 15.77 5.93 15.07 6.22 14.4 6.55 C 14.4 6.55 9.6 3.18 9.6 3.18 C 9.6 3.18 4.2 8.49 4.2 8.49 C 4.2 8.49 7.63 13.22 7.63 13.22 C 7.3 13.88 7.01 14.57 6.77 15.28 C 6.77 15.28 0.94 16.24 0.94 16.24 C 0.94 16.24 0.94 23.75 0.94 23.75 C 0.94 23.75 6.79 24.71 6.79 24.71 C 7.02 25.41 7.31 26.09 7.65 26.74 C 7.65 26.74 4.2 31.49 4.2 31.49 C 4.2 31.49 9.6 36.81 9.6 36.81 C 9.6 36.81 14.43 33.41 14.43 33.41 C 15.09 33.73 15.78 34.02 16.49 34.25 C 16.49 34.25 17.47 40.01 17.47 40.01 C 17.47 40.01 25.11 40.01 25.11 40.01 C 25.11 40.01 26.08 34.25 26.08 34.25 C 26.8 34.02 27.48 33.73 28.14 33.41 C 28.14 33.41 32.98 36.81 32.98 36.81 C 32.98 36.81 38.38 31.49 38.38 31.49 C 38.38 31.49 34.93 26.74 34.93 26.74 C 35.27 26.09 35.55 25.41 35.79 24.71 C 35.79 24.71 42.04 23.75 42.04 23.75 Z M 21.29 25 C 18.48 25 16.2 22.76 16.2 19.99 C 16.2 17.23 18.48 14.99 21.29 14.99 C 24.1 14.99 26.38 17.23 26.38 19.99 C 26.38 22.76 24.1 25 21.29 25" />
</svg>