<?xml version="1.0" encoding="utf-8"?>
<!-- Generator: Avocode 2.6.0 - http://avocode.com -->
<svg height="36" width="45" xmlns:xlink="http://www.w3.org/1999/xlink" xmlns="http://www.w3.org/2000/svg" viewBox="0 0 45 36">
    <path fill="#ffe600" fill-rule="evenodd" d="M 45.01 19.04 C 45.01 19.04 39.05 7.99 39.05 7.99 C 39.05 7.99 30.99 8.02 30.99 8.02 C 30.99 8.02 30.99 2.76 30.99 2.76 C 30.99 1.23 29.41 -0.01 27.87 -0.01 C 27.87 -0.01 2.73 -0.01 2.73 -0.01 C 1.19 -0.01 0.03 1.3 0.03 2.82 C 0.03 2.82 0 24.88 0 24.88 C 0 24.88 2.61 26.99 2.61 26.99 C 2.61 26.99 6.49 27.02 6.49 27.02 C 6.02 27.83 5.53 29.4 5.53 30.41 C 5.53 33.46 8.03 35.94 11.11 35.94 C 14.2 35.94 16.7 33.46 16.7 30.41 C 16.7 29.4 16.58 27.8 16.11 26.99 C 16.11 26.99 31.57 27.02 31.57 27.02 C 31.09 27.83 30.67 29.4 30.67 30.41 C 30.67 33.46 33.17 35.94 36.25 35.94 C 39.34 35.94 41.84 33.46 41.84 30.41 C 41.84 29.4 41.5 27.83 41.03 27.02 C 41.03 27.02 45.01 26.99 45.01 26.99 C 45.01 26.99 45.01 19.04 45.01 19.04 Z M 31.07 17.99 C 31.07 17.99 31.04 11.06 31.04 11.06 C 31.04 11.06 36.05 11 36.05 11 C 36.05 11 39.95 17.99 39.95 17.99 C 39.95 17.99 31.07 17.99 31.07 17.99 Z" />
</svg>