<?xml version="1.0" encoding="utf-8"?>
<!-- Generator: Avocode 2.6.0 - http://avocode.com -->
<svg height="16" width="18" xmlns:xlink="http://www.w3.org/1999/xlink" xmlns="http://www.w3.org/2000/svg" viewBox="0 0 18 16">
    <path fill="#ffffff" fill-rule="evenodd" d="M 17.94 2.22 C 17.29 2.52 16.58 2.72 15.84 2.8 C 16.59 2.35 17.17 1.63 17.45 0.77 C 16.74 1.19 15.96 1.5 15.12 1.66 C 14.45 0.95 13.5 0.5 12.44 0.5 C 10.42 0.5 8.78 2.15 8.78 4.17 C 8.78 4.46 8.81 4.74 8.87 5.01 C 5.82 4.86 3.12 3.4 1.32 1.18 C 1 1.72 0.81 2.35 0.81 3.02 C 0.81 4.29 1.46 5.41 2.45 6.07 C 1.85 6.05 1.28 5.89 0.79 5.62 C 0.79 5.63 0.79 5.65 0.79 5.66 C 0.79 7.44 2.05 8.92 3.73 9.26 C 3.42 9.34 3.1 9.38 2.76 9.38 C 2.53 9.38 2.29 9.36 2.07 9.32 C 2.54 10.78 3.89 11.84 5.5 11.87 C 4.24 12.85 2.66 13.44 0.94 13.44 C 0.64 13.44 0.35 13.42 0.07 13.39 C 1.69 14.43 3.62 15.03 5.69 15.03 C 12.43 15.03 16.12 9.44 16.12 4.6 C 16.12 4.44 16.12 4.28 16.11 4.12 C 16.83 3.61 17.45 2.96 17.94 2.22" />
</svg>