<?xml version="1.0" encoding="utf-8"?>
<!-- Generator: Avocode 2.6.0 - http://avocode.com -->
<svg height="39" width="39" xmlns:xlink="http://www.w3.org/1999/xlink" xmlns="http://www.w3.org/2000/svg" viewBox="0 0 39 39">
    <path fill="#ffffff" fill-rule="evenodd" d="M 36.33 10.77 C 36.33 10.77 27.93 2.37 27.93 2.37 C 27.93 2.37 30.33 -0.03 30.33 -0.03 C 30.33 -0.03 38.73 8.37 38.73 8.37 C 38.73 8.37 36.33 10.77 36.33 10.77 Z M 33.93 13.17 C 33.93 13.17 32.73 26.37 32.73 26.37 C 21.93 26.37 6.33 38.37 6.33 38.37 C 6.33 38.37 4.34 36.38 4.34 36.38 C 4.34 36.38 14.6 26.12 14.6 26.12 C 15.01 26.28 15.46 26.37 15.93 26.37 C 17.92 26.37 19.53 24.76 19.53 22.77 C 19.53 20.78 17.92 19.17 15.93 19.17 C 13.94 19.17 12.33 20.78 12.33 22.77 C 12.33 23.24 12.42 23.69 12.58 24.1 C 12.58 24.1 2.32 34.36 2.32 34.36 C 2.32 34.36 0.33 32.37 0.33 32.37 C 0.33 32.37 12.33 16.77 12.33 5.97 C 12.33 5.97 25.53 4.77 25.53 4.77 C 25.53 4.77 33.93 13.17 33.93 13.17 Z" />
</svg>