<?xml version="1.0" encoding="utf-8"?>
<!-- Generator: Avocode 2.6.0 - http://avocode.com -->
<svg height="36" width="40" xmlns:xlink="http://www.w3.org/1999/xlink" xmlns="http://www.w3.org/2000/svg" viewBox="0 0 40 36">
    <path fill="#ffffff" fill-rule="evenodd" d="M 6.03 0.04 C 6.03 0.04 4.98 6 4.98 6 C 4.98 6 31.44 6 31.44 6 C 31.44 6 30.37 11.01 30.37 11.01 C 30.37 11.01 3.89 11.01 3.89 11.01 C 3.89 11.01 2.62 16.93 2.62 16.93 C 2.62 16.93 29.37 16.97 29.37 16.97 C 29.37 16.97 27.6 24.92 27.6 24.92 C 27.6 24.92 16.93 28.46 16.93 28.46 C 16.93 28.46 7.69 24.92 7.69 24.92 C 7.69 24.92 8.14 21.97 8.14 21.97 C 8.14 21.97 1.51 21.97 1.51 21.97 C 1.51 21.97 0.27 29.51 0.27 29.51 C 0.27 29.51 15.56 35.36 15.56 35.36 C 15.56 35.36 33.19 29.51 33.19 29.51 C 33.19 29.51 39.13 0.04 39.13 0.04 C 39.13 0.04 6.03 0.04 6.03 0.04 Z" />
</svg>