<?xml version="1.0" encoding="utf-8"?>
<!-- Generator: Avocode 2.6.0 - http://avocode.com -->
<svg height="30" width="29" xmlns:xlink="http://www.w3.org/1999/xlink" xmlns="http://www.w3.org/2000/svg" viewBox="0 0 29 30">
    <path fill="#ffffff" fill-rule="evenodd" d="M 26.48 16.94 C 28.58 16.94 27.4 22.47 25.56 22.47 C 26.48 22.47 25.56 27.08 23.71 27.08 C 23.71 28.93 21.9 30.03 20.06 30.03 C 12.27 30.03 14.91 27.86 7.05 27.05 C 7.05 27.05 6.98 12.33 6.98 12.33 C 13.92 10.25 20.95 5.03 20.95 0.35 C 22.47 0.35 26.4 1.8 20.88 11.02 C 20.88 11.02 26.44 11.02 26.44 11.02 C 29.21 11.02 28.32 16.94 26.48 16.94 M 5.02 12.33 C 5.02 12.33 5.02 27.01 5.02 27.01 C 5.02 27.01 7.12 27.01 7.12 27.01 C 7.12 27.01 7.12 28.01 7.12 28.01 C 7.12 28.01 3.43 28.01 3.43 28.01 C 2.42 28.01 0.98 26.76 0.98 25.24 C 0.98 25.24 0.94 14.21 0.94 14.21 C 0.94 12.69 2.35 10.98 3.36 10.98 C 3.36 10.98 7.12 10.98 7.12 10.98 C 7.12 10.98 7.12 12.33 7.12 12.33 C 7.12 12.33 5.02 12.33 5.02 12.33 Z" />
</svg>