<?xml version="1.0" encoding="utf-8"?>
<!-- Generator: Avocode 2.6.0 - http://avocode.com -->
<svg height="30" width="34" xmlns:xlink="http://www.w3.org/1999/xlink" xmlns="http://www.w3.org/2000/svg" viewBox="0 0 34 30">
    <path fill="#ffffff" fill-rule="evenodd" d="M 14.43 0.63 C 14.43 0.63 14.43 0.63 14.43 0.63 C 21.97 0.63 28.08 5.57 28.08 11.67 C 28.08 17.77 21.97 22.72 14.43 22.72 C 13.7 22.72 12.99 22.67 12.3 22.59 C 9.37 25.51 5.98 26.03 2.6 26.11 C 2.6 26.11 2.6 25.39 2.6 25.39 C 4.43 24.5 5.9 22.88 5.9 21.02 C 5.9 20.76 5.88 20.51 5.84 20.26 C 2.75 18.23 0.78 15.14 0.78 11.67 C 0.78 5.57 6.89 0.63 14.43 0.63 M 29.1 25.39 C 29.1 26.98 30.13 28.37 31.72 29.13 C 31.72 29.13 31.72 29.75 31.72 29.75 C 28.79 29.68 26.1 29.23 23.55 26.73 C 22.95 26.81 22.34 26.85 21.71 26.85 C 18.99 26.85 16.49 26.11 14.5 24.88 C 18.61 24.87 22.5 23.55 25.44 21.16 C 26.92 19.96 28.1 18.55 28.92 16.98 C 29.8 15.3 30.24 13.52 30.24 11.67 C 30.24 11.38 30.23 11.08 30.2 10.79 C 32.27 12.49 33.54 14.81 33.54 17.38 C 33.54 20.35 31.83 23 29.15 24.73 C 29.12 24.95 29.1 25.16 29.1 25.39" />
</svg>