<?xml version="1.0" encoding="utf-8"?>
<!-- Generator: Avocode 2.6.0 - http://avocode.com -->
<svg height="16" width="8" xmlns:xlink="http://www.w3.org/1999/xlink" xmlns="http://www.w3.org/2000/svg" viewBox="0 0 8 16">
    <path fill="#ffffff" fill-rule="evenodd" d="M 4.96 15.04 C 4.96 15.04 2.01 15 2.01 15 C 2.01 15 2.01 8.06 2.01 8.06 C 2.01 8.06 0 8.03 0 8.03 C 0 8.03 0 4.99 0 4.99 C 0 4.99 2.01 4.99 2.01 4.99 C 2.01 4.99 2.01 3.2 2.01 3.2 C 2.01 1.15 2.69 0 5.11 0 C 5.11 0 6.99 0 6.99 0 C 6.99 0 6.96 3.04 6.96 3.04 C 6.96 3.04 5.89 2.98 5.89 2.98 C 4.95 2.98 5 3.14 5 3.79 C 5 3.79 5.02 4.99 5.02 4.99 C 5.02 4.99 7.03 4.99 7.03 4.99 C 7.03 4.99 6.98 8.06 6.98 8.06 C 6.98 8.06 4.99 8.03 4.99 8.03 C 4.99 8.03 4.96 15.04 4.96 15.04 Z" />
</svg>