<?xml version="1.0" encoding="utf-8"?>
<!-- Generator: Avocode 2.6.0 - http://avocode.com -->
<svg height="29" width="34" xmlns:xlink="http://www.w3.org/1999/xlink" xmlns="http://www.w3.org/2000/svg" viewBox="0 0 34 29">
    <path fill="#ffe600" fill-rule="evenodd" d="M 33.95 17.02 C 33.95 17.02 27.96 11.35 27.96 11.35 C 27.96 11.35 27.96 1.05 27.96 1.05 C 27.96 1.05 22.99 1.01 22.99 1.01 C 22.99 1.01 22.99 6.47 22.99 6.47 C 22.99 6.47 16.97 0.01 16.97 0.01 C 16.97 0.01 0.02 17.02 0.02 17.02 C 0.02 17.02 0.05 17.99 0.05 17.99 C 0.05 17.99 4.06 17.96 4.06 17.96 C 4.06 17.96 4.03 28.96 4.03 28.96 C 4.03 28.96 14.93 28.96 14.93 28.96 C 14.93 28.96 14.93 22 14.93 22 C 14.93 22 19.04 21.97 19.04 21.97 C 19.04 21.97 19.01 28.99 19.01 28.99 C 19.01 28.99 29.97 28.96 29.97 28.96 C 29.97 28.96 30 17.96 30 17.96 C 30 17.96 33.98 17.99 33.98 17.99 C 33.98 17.99 33.95 17.02 33.95 17.02 Z" />
</svg>