<?xml version="1.0" encoding="utf-8"?>
<!-- Generator: Avocode 2.6.0 - http://avocode.com -->
<svg height="46" width="44" xmlns:xlink="http://www.w3.org/1999/xlink" xmlns="http://www.w3.org/2000/svg" viewBox="0 0 44 46">
    <path fill="#ffe600" fill-rule="evenodd" d="M 40.14 26.87 C 37.83 22.78 39.22 17.54 43.25 15.16 C 43.25 15.16 38.92 7.5 38.92 7.5 C 37.68 8.24 36.24 8.66 34.7 8.66 C 30.08 8.66 26.32 4.81 26.32 0.05 C 26.32 0.05 17.66 0.05 17.66 0.05 C 17.67 1.52 17.31 3.01 16.54 4.37 C 14.23 8.46 9.09 9.85 5.05 7.48 C 5.05 7.48 0.72 15.14 0.72 15.14 C 1.96 15.87 3.05 16.92 3.81 18.28 C 6.12 22.36 4.74 27.59 0.72 29.98 C 0.72 29.98 5.06 37.64 5.06 37.64 C 6.29 36.91 7.72 36.49 9.25 36.49 C 13.87 36.49 17.61 40.32 17.63 45.06 C 17.63 45.06 26.3 45.06 26.3 45.06 C 26.29 43.6 26.65 42.13 27.42 40.78 C 29.72 36.7 34.85 35.31 38.88 37.66 C 38.88 37.66 43.22 30 43.22 30 C 41.98 29.28 40.91 28.22 40.14 26.87 M 21.98 31.66 C 17.06 31.66 13.06 27.59 13.06 22.55 C 13.06 17.52 17.06 13.44 21.98 13.44 C 26.91 13.44 30.91 17.52 30.91 22.55 C 30.91 27.59 26.91 31.66 21.98 31.66" />
</svg>