<?xml version="1.0" encoding="utf-8"?>
<!-- Generator: Avocode 2.6.0 - http://avocode.com -->
<svg height="45" width="42" xmlns:xlink="http://www.w3.org/1999/xlink" xmlns="http://www.w3.org/2000/svg" viewBox="0 0 42 45">
    <path fill="#ffe600" fill-rule="evenodd" d="M 40.06 35.3 C 40.06 35.3 26.97 12.17 26.97 12.17 C 26.97 12.17 27 2.81 27 2.81 C 27 2.81 27.73 2.81 27.73 2.81 C 28.5 2.81 29.12 2.17 29.12 1.4 C 29.12 0.63 28.5 0 27.73 0 C 27.73 0 13.86 0 13.86 0 C 13.1 0 12.48 0.63 12.48 1.4 C 12.48 2.17 13.1 2.81 13.86 2.81 C 13.86 2.81 14.97 2.81 14.97 2.81 C 14.97 2.81 15 12.17 15 12.17 C 15 12.17 1.54 35.3 1.54 35.3 C -1.6 40.6 0.83 44.93 6.93 44.93 C 6.93 44.93 34.67 44.93 34.67 44.93 C 40.77 44.93 43.19 40.6 40.06 35.3 M 9.08 27.96 C 9.08 27.96 17.99 12.94 17.99 12.94 C 17.99 12.94 17.99 2.99 17.99 2.99 C 17.99 2.99 24.01 2.99 24.01 2.99 C 24.01 2.99 24.01 12.94 24.01 12.94 C 24.01 12.94 32.45 27.96 32.45 27.96 C 32.45 27.96 9.08 27.96 9.08 27.96 Z" />
</svg>