<?xml version="1.0" encoding="utf-8"?>
<!-- Generator: Avocode 2.6.0 - http://avocode.com -->
<svg height="33" width="33" xmlns:xlink="http://www.w3.org/1999/xlink" xmlns="http://www.w3.org/2000/svg" viewBox="0 0 33 33">
    <path fill="#ffffff" fill-rule="evenodd" d="M 16.87 0.47 C 7.98 0.47 0.78 7.68 0.78 16.56 C 0.78 25.45 7.98 32.66 16.87 32.66 C 25.76 32.66 32.97 25.45 32.97 16.56 C 32.97 7.68 25.76 0.47 16.87 0.47 M 10.84 16.56 C 10.84 13.23 13.54 10.53 16.87 10.53 C 20.21 10.53 22.91 13.23 22.91 16.56 C 22.91 19.9 20.21 22.6 16.87 22.6 C 13.54 22.6 10.84 19.9 10.84 16.56 M 29.88 21.96 C 29.88 21.96 29.88 21.96 29.88 21.96 C 29.88 21.96 24.31 19.65 24.31 19.65 C 24.7 18.7 24.92 17.66 24.92 16.56 C 24.92 15.47 24.7 14.43 24.3 13.48 C 24.3 13.48 28.14 11.89 28.14 11.89 C 28.14 11.89 29.88 11.17 29.88 11.17 C 30.57 12.84 30.95 14.65 30.95 16.56 C 30.95 18.47 30.57 20.3 29.88 21.96 M 22.26 3.55 C 22.26 3.55 22.26 3.55 22.26 3.55 C 22.26 3.55 19.95 9.13 19.95 9.13 C 19 8.73 17.96 8.52 16.87 8.52 C 15.78 8.52 14.74 8.73 13.79 9.13 C 13.79 9.13 12.71 6.51 12.71 6.51 C 12.71 6.51 11.48 3.55 11.48 3.55 C 13.14 2.86 14.96 2.48 16.87 2.48 C 18.78 2.48 20.6 2.86 22.26 3.55 M 3.86 11.17 C 3.86 11.17 6.82 12.4 6.82 12.4 C 6.82 12.4 9.43 13.48 9.43 13.48 C 9.04 14.43 8.82 15.47 8.82 16.56 C 8.82 17.66 9.04 18.7 9.43 19.65 C 9.43 19.65 3.86 21.96 3.86 21.96 C 3.17 20.3 2.79 18.47 2.79 16.56 C 2.79 14.65 3.17 12.84 3.86 11.17 M 11.48 29.58 C 11.48 29.58 12.2 27.84 12.2 27.84 C 12.2 27.84 13.79 24 13.79 24 C 14.74 24.4 15.78 24.61 16.87 24.61 C 17.96 24.61 19 24.4 19.95 24 C 19.95 24 22.26 29.58 22.26 29.58 C 20.6 30.27 18.78 30.65 16.87 30.65 C 14.96 30.65 13.14 30.27 11.48 29.58" />
</svg>