<?xml version="1.0" encoding="utf-8"?>
<!-- Generator: Avocode 2.6.0 - http://avocode.com -->
<svg height="32" width="33" xmlns:xlink="http://www.w3.org/1999/xlink" xmlns="http://www.w3.org/2000/svg" viewBox="0 0 33 32">
    <path fill="#ffe600" fill-rule="evenodd" d="M 23.83 19.33 C 21.72 21.45 21.72 23.56 19.61 23.56 C 17.5 23.56 15.38 21.45 13.27 19.33 C 11.16 17.23 9.05 15.11 9.05 13 C 9.05 10.89 11.16 10.89 13.27 8.78 C 15.38 6.67 9.05 0.34 6.94 0.34 C 4.83 0.34 0.61 6.67 0.61 6.67 C 0.61 10.89 4.95 19.45 9.05 23.56 C 13.16 27.66 21.72 32 25.94 32 C 25.94 32 32.27 27.78 32.27 25.67 C 32.27 23.56 25.94 17.23 23.83 19.33" />
</svg>