<?xml version="1.0" encoding="utf-8"?>
<!-- Generator: Avocode 2.6.0 - http://avocode.com -->
<svg height="44" width="44" xmlns:xlink="http://www.w3.org/1999/xlink" xmlns="http://www.w3.org/2000/svg" viewBox="0 0 44 44">
    <path fill="#ffe600" fill-rule="evenodd" d="M 39.09 -0.01 C 39.09 -0.01 41.98 24.54 41.98 24.54 C 41.98 24.54 38.73 24.92 38.73 24.92 C 38.73 24.92 36.15 3 36.15 3 C 36.15 3 8.78 3 8.78 3 C 8.78 3 6.2 24.92 6.2 24.92 C 6.2 24.92 2.96 24.54 2.96 24.54 C 2.96 24.54 5.85 -0.01 5.85 -0.01 C 5.85 -0.01 39.09 -0.01 39.09 -0.01 Z M 12 4.95 C 12 4.95 32.97 4.95 32.97 4.95 C 32.97 4.95 33.01 7.99 33.01 7.99 C 33.01 7.99 12 8.07 12 8.07 C 12 8.07 12 4.95 12 4.95 Z M 12.02 10.99 C 12.02 10.99 33.04 10.99 33.04 10.99 C 33.04 10.99 33 14.02 33 14.02 C 33 14.02 11.99 13.98 11.99 13.98 C 11.99 13.98 12.02 10.99 12.02 10.99 Z M 12.02 16.98 C 12.02 16.98 33 16.98 33 16.98 C 33 16.98 33 20.01 33 20.01 C 33 20.01 11.99 20.04 11.99 20.04 C 11.99 20.04 12.02 16.98 12.02 16.98 Z M 11.96 21.98 C 11.96 21.98 33 21.98 33 21.98 C 33 21.98 33.04 25.04 33.04 25.04 C 33.04 25.04 11.99 25.01 11.99 25.01 C 11.99 25.01 11.96 21.98 11.96 21.98 Z M 42.86 28.04 C 42.86 28.04 1.83 27.98 1.83 27.98 C 1.07 27.98 0.8 28.81 1.04 29.53 C 1.04 29.53 5.52 42.66 5.52 42.66 C 5.76 43.38 6.57 43.97 7.33 43.97 C 7.33 43.97 37.6 43.97 37.6 43.97 C 38.36 43.97 39.17 43.38 39.41 42.66 C 39.41 42.66 43.95 29.4 43.95 29.4 C 44.19 28.69 43.71 27.98 42.95 27.98 M 28 32.97 C 28 32.97 16.96 32.97 16.96 32.97 C 16.96 32.97 16.99 29.97 16.99 29.97 C 16.99 29.97 27.97 29.97 27.97 29.97 C 27.97 29.97 28 32.97 28 32.97 Z" />
</svg>