<?xml version="1.0" encoding="utf-8"?>
<!-- Generator: Avocode 2.6.0 - http://avocode.com -->
<svg height="42" width="45" xmlns:xlink="http://www.w3.org/1999/xlink" xmlns="http://www.w3.org/2000/svg" viewBox="0 0 45 42">
    <path fill="#ffe600" fill-rule="evenodd" d="M 44.36 33.54 C 44.36 33.54 31.37 20.55 31.37 20.55 C 30.57 19.75 29.25 19.75 28.45 20.55 C 28.45 20.55 27.48 21.53 27.48 21.53 C 27.48 21.53 19.55 13.61 19.55 13.61 C 19.55 13.61 32.92 0.03 32.92 0.03 C 32.92 0.03 19.19 0.03 19.19 0.03 C 19.19 0.03 12.66 6.72 12.66 6.72 C 12.66 6.72 12.09 5.95 12.09 5.95 C 12.09 5.95 9.01 5.99 9.01 5.99 C 9.01 5.99 9.04 8.94 9.04 8.94 C 9.04 8.94 9.74 9.64 9.74 9.64 C 9.74 9.64 0.87 18.51 0.87 18.51 C 0.87 18.51 7.76 25.4 7.76 25.4 C 7.76 25.4 16.63 16.53 16.63 16.53 C 16.63 16.53 24.55 24.45 24.55 24.45 C 24.55 24.45 23.58 25.42 23.58 25.42 C 22.77 26.23 22.77 27.54 23.58 28.35 C 23.58 28.35 36.56 41.33 36.56 41.33 C 37.37 42.13 38.68 42.13 39.48 41.33 C 39.48 41.33 44.35 36.46 44.35 36.46 C 45.16 35.66 45.16 34.34 44.36 33.54" />
</svg>