<?xml version="1.0" encoding="utf-8"?>
<!-- Generator: Avocode 2.6.0 - http://avocode.com -->
<svg height="34" width="30" xmlns:xlink="http://www.w3.org/1999/xlink" xmlns="http://www.w3.org/2000/svg" viewBox="0 0 30 34">
    <path fill="#ffffff" fill-rule="evenodd" d="M 14.91 4.61 C 7 4.61 0.59 11.03 0.59 18.94 C 0.59 26.85 7 33.26 14.91 33.26 C 22.82 33.26 29.23 26.85 29.23 18.94 C 29.23 11.03 22.82 4.61 14.91 4.61 M 14.91 30.45 C 8.56 30.45 3.4 25.29 3.4 18.94 C 3.4 12.58 8.56 7.43 14.91 7.43 C 21.27 7.43 26.42 12.58 26.42 18.94 C 26.42 25.29 21.27 30.45 14.91 30.45 M 28.43 9.7 C 28.94 8.81 29.23 7.77 29.23 6.66 C 29.23 3.27 26.49 0.52 23.1 0.52 C 21.12 0.52 19.36 1.46 18.24 2.91 C 22.45 3.78 26.08 6.27 28.43 9.7 M 11.58 2.91 C 10.46 1.46 8.7 0.52 6.73 0.52 C 3.34 0.52 0.59 3.27 0.59 6.66 C 0.59 7.77 0.88 8.81 1.39 9.7 C 3.74 6.27 7.37 3.78 11.58 2.91 M 12.87 10.98 C 12.87 10.98 15.05 10.98 15.05 10.98 C 15.05 10.98 15.09 20.98 15.09 20.98 C 15.09 20.98 12.87 20.98 12.87 20.98 C 12.87 20.98 12.87 10.98 12.87 10.98 Z M 14.87 18.94 C 14.87 18.94 21.05 18.94 21.05 18.94 C 21.05 18.94 21.05 20.98 21.05 20.98 C 21.05 20.98 14.91 20.98 14.91 20.98 C 14.91 20.98 14.87 18.94 14.87 18.94 Z" />
</svg>