<?xml version="1.0" encoding="utf-8"?>
<!-- Generator: Avocode 2.6.0 - http://avocode.com -->
<svg height="11" width="11" xmlns:xlink="http://www.w3.org/1999/xlink" xmlns="http://www.w3.org/2000/svg" viewBox="0 0 11 11">
    <path fill="#ffffff" fill-rule="evenodd" d="M 6.72 5.72 C 6.72 5.72 10.38 9.38 10.38 9.38 C 10.58 9.58 10.58 9.91 10.38 10.11 C 10.38 10.11 10.01 10.48 10.01 10.48 C 9.8 10.69 9.47 10.69 9.27 10.48 C 9.27 10.48 4.88 6.1 4.88 6.1 C 4.78 5.99 4.73 5.86 4.73 5.72 C 4.73 5.59 4.78 5.45 4.88 5.35 C 4.88 5.35 9.27 0.96 9.27 0.96 C 9.47 0.76 9.8 0.76 10.01 0.96 C 10.01 0.96 10.38 1.33 10.38 1.33 C 10.58 1.54 10.58 1.87 10.38 2.07 C 10.38 2.07 6.72 5.72 6.72 5.72 Z M 2.9 5.72 C 2.9 5.72 6.56 9.38 6.56 9.38 C 6.76 9.58 6.76 9.91 6.56 10.11 C 6.56 10.11 6.19 10.48 6.19 10.48 C 5.98 10.69 5.65 10.69 5.45 10.48 C 5.45 10.48 1.06 6.1 1.06 6.1 C 0.96 5.99 0.91 5.86 0.91 5.72 C 0.91 5.59 0.96 5.45 1.06 5.35 C 1.06 5.35 5.45 0.96 5.45 0.96 C 5.65 0.76 5.98 0.76 6.19 0.96 C 6.19 0.96 6.56 1.33 6.56 1.33 C 6.76 1.54 6.76 1.87 6.56 2.07 C 6.56 2.07 2.9 5.72 2.9 5.72 Z" />
</svg>