<?xml version="1.0" encoding="utf-8"?>
<!-- Generator: Avocode 2.6.0 - http://avocode.com -->
<svg height="11" width="11" xmlns:xlink="http://www.w3.org/1999/xlink" xmlns="http://www.w3.org/2000/svg" viewBox="0 0 11 11">
    <path fill="#ffffff" fill-rule="evenodd" d="M 10.41 6.12 C 10.41 6.12 6.02 10.51 6.02 10.51 C 5.82 10.71 5.49 10.71 5.28 10.51 C 5.28 10.51 4.91 10.14 4.91 10.14 C 4.71 9.93 4.71 9.6 4.91 9.4 C 4.91 9.4 8.57 5.74 8.57 5.74 C 8.57 5.74 4.91 2.09 4.91 2.09 C 4.71 1.89 4.71 1.56 4.91 1.35 C 4.91 1.35 5.28 0.98 5.28 0.98 C 5.49 0.78 5.82 0.78 6.02 0.98 C 6.02 0.98 10.41 5.37 10.41 5.37 C 10.51 5.47 10.56 5.61 10.56 5.74 C 10.56 5.88 10.51 6.02 10.41 6.12 Z M 6.74 5.74 C 6.74 5.88 6.69 6.02 6.59 6.12 C 6.59 6.12 2.2 10.51 2.2 10.51 C 2 10.71 1.66 10.71 1.46 10.51 C 1.46 10.51 1.09 10.14 1.09 10.14 C 0.89 9.93 0.89 9.6 1.09 9.4 C 1.09 9.4 4.74 5.74 4.74 5.74 C 4.74 5.74 1.09 2.09 1.09 2.09 C 0.89 1.89 0.89 1.56 1.09 1.35 C 1.09 1.35 1.46 0.98 1.46 0.98 C 1.66 0.78 2 0.78 2.2 0.98 C 2.2 0.98 6.59 5.37 6.59 5.37 C 6.69 5.47 6.74 5.61 6.74 5.74 Z" />
</svg>